<svg xmlns="http://www.w3.org/2000/svg" width="1200" height="900" viewBox="0 0 1200 900"><rect x="60" y="85" width="1080" height="690" rx="16" fill="#fffefd"/><rect x="60" y="85" width="1080" height="78" rx="16" fill="#b3283a"/><rect x="60" y="125" width="1080" height="38" rx="0" fill="#b3283a"/><text x="100" y="136" font-family="Arial,sans-serif" font-size="30" font-weight="700" fill="white">Lesson companion</text><text x="100" y="216" font-family="Arial,sans-serif" font-size="23" font-weight="400" fill="#78716c">SCIENCE  /  GRADE 3  /  SAMPLE LESSON</text><text x="100" y="294" font-family="Arial,sans-serif" font-size="46" font-weight="700" fill="#1c1917">What do plants need?</text><text x="100" y="353" font-family="Arial,sans-serif" font-size="22" font-weight="700" fill="#b3283a">ACTION</text><text x="100" y="404" font-family="Arial,sans-serif" font-size="34" font-weight="400" fill="#1c1917">Observe two plants.</text><text x="100" y="451" font-family="Arial,sans-serif" font-size="34" font-weight="400" fill="#1c1917">What is different?</text><rect x="100" y="513" width="430" height="120" rx="8" fill="#f8f3ea"/><text x="125" y="555" font-family="Arial,sans-serif" font-size="26" font-weight="700" fill="#b3283a">Think and share</text><text x="125" y="597" font-family="Arial,sans-serif" font-size="24" font-weight="400" fill="#1c1917">Light. Water. Healthy leaves.</text><rect x="720" y="564" width="190" height="93" rx="8" fill="#d9c8af"/><path d="M815 563V359" stroke="#78716c" stroke-width="10"/><path d="M813 463Q685 470 697 367Q806 366 813 463M819 407Q927 421 950 308Q826 306 819 407" fill="#b6b19f"/><rect x="100" y="687" width="1000" height="2" rx="0" fill="#e7e5e4"/><text x="100" y="733" font-family="Arial,sans-serif" font-size="22" font-weight="400" fill="#78716c">Aim    /    Action    /    Analysis    /    Application    /    Assessment</text></svg>